<?xml version="1.0" encoding="utf-8"?>
<svg xmlns="http://www.w3.org/2000/svg" style="margin: auto; background: none; display: block; shape-rendering: auto;" width="280" height="263" preserveAspectRatio="xMidYMid">
<style type="text/css">
  text {
    text-anchor: middle; font-size: 70px; opacity: 0;
  }
</style>
<g style="transform-origin: 140px 131.5px; transform: scale(0.482759);">
<g transform="translate(140,131.5)">
  <g transform="translate(-10,0)"><g class="path" style="transform: rotate(0deg); transform-origin: -53.945px -10.7201px; animation: 2s linear -0.66s infinite normal forwards running spin-e80ef510-7064-458b-b517-249f193f6d98;"><path d="M90.04-96.13L88.02-84.97L88.02-84.97Q81.63-86.27 74.46-87.43L74.46-87.43L74.46-87.43Q67.28-88.59 57.85-88.88L57.85-88.88L57.85-88.88Q48.28-88.74 41.32-85.98L41.32-85.98L41.32-85.98Q34.36-83.23 29.94-78.08L29.94-78.08L29.94-78.08Q25.52-72.93 23.34-65.83L23.34-65.83L23.34-65.83Q21.17-58.72 21.17-50.17L21.17-50.17L21.17-50.17Q21.17-39.15 24.00-31.32L24.00-31.32L24.00-31.32Q26.82-23.49 31.83-18.49L31.83-18.49L31.83-18.49Q36.83-13.48 43.50-11.16L43.50-11.16L43.50-11.16Q50.17-8.84 57.85-8.84L57.85-8.84L57.85-8.84Q62.78-8.84 66.77-9.42L66.77-9.42L66.77-9.42Q70.76-10.00 73.73-10.80L73.73-10.80L73.73-10.80Q76.70-11.60 79.17-12.61L79.17-12.61L79.17-39.15L61.04-39.15L61.04-50.02L91.49-50.02L91.49-6.67L91.49-6.67Q86.42-3.33 77.50-0.65L77.50-0.65L77.50-0.65Q68.58 2.03 57.85 1.88L57.85 1.88L57.85 1.88Q47.99 1.88 38.93-0.43L38.93-0.43L38.93-0.43Q29.87-2.75 22.84-8.63L22.84-8.63L22.84-8.63Q15.80-14.50 11.60-24.65L11.60-24.65L11.60-24.65Q7.39-34.80 7.39-50.31L7.39-50.31L7.39-50.31Q7.39-62.93 11.31-72.28L11.31-72.28L11.31-72.28Q15.22-81.63 21.97-87.80L21.97-87.80L21.97-87.80Q28.71-93.96 37.63-97.08L37.63-97.08L37.63-97.08Q46.54-100.19 56.55-100.19L56.55-100.19L56.55-100.19Q63.07-100.19 69.16-99.54L69.16-99.54L69.16-99.54Q75.25-98.89 80.33-98.09L80.33-98.09L80.33-98.09Q85.41-97.29 90.04-96.13L90.04-96.13" fill="#000000" stroke="none" stroke-width="none" transform="translate(-103.385009765625,38.430909423828126)" style="fill: rgb(0, 0, 0);"></path></g><g class="path" style="transform: rotate(0deg); transform-origin: 73.075px -11.0141px; animation: 2s linear 0s infinite normal forwards running spin-e80ef510-7064-458b-b517-249f193f6d98;"><path d="M138.76 0L138.76-5.22L194.73-87.29L138.76-87.29L138.76-98.89L214.16-98.89L214.16-93.96L157.76-11.60L212.86-11.60L212.86 0L138.76 0" fill="#000000" stroke="none" stroke-width="none" transform="translate(-103.385009765625,38.430909423828126)" style="fill: rgb(0, 0, 0);"></path></g></g>
</g>
</g>
<style id="spin-e80ef510-7064-458b-b517-249f193f6d98" data-anikit="">@keyframes spin-e80ef510-7064-458b-b517-249f193f6d98
{
  0% {
    animation-timing-function: cubic-bezier(0.5856,0.0703,0.4143,0.9297);
    transform: rotate(0deg);
  }
  100% {
    transform: rotate(360deg);
  }
}</style></svg>