<?xml version="1.0" encoding="utf-8"?>
<svg xmlns="http://www.w3.org/2000/svg" style="margin: auto; background: none; display: block; shape-rendering: auto;" width="280" height="250" preserveAspectRatio="xMidYMid">
<style type="text/css">
  text {
    text-anchor: middle; font-size: 70px; opacity: 0;
  }
</style>
<g style="transform-origin: 140px 125px; transform: scale(0.875);">
<g transform="translate(140,125)">
  <g transform="translate(0,0)"><g class="path" style="transform: rotate(0deg); transform-origin: -29.76px -5.91317px; animation: 2s linear -0.66s infinite normal forwards running spin-b09402b4-071f-4de1-994c-fc413b915ec9;">
  <path d="M49.68-53.04L48.56-46.88L48.56-46.88Q45.04-47.60 41.08-48.24L41.08-48.24L41.08-48.24Q37.12-48.88 31.92-49.04L31.92-49.04L31.92-49.04Q26.64-48.96 22.80-47.44L22.80-47.44L22.80-47.44Q18.96-45.92 16.52-43.08L16.52-43.08L16.52-43.08Q14.08-40.24 12.88-36.32L12.88-36.32L12.88-36.32Q11.68-32.40 11.68-27.68L11.68-27.68L11.68-27.68Q11.68-21.60 13.24-17.28L13.24-17.28L13.24-17.28Q14.80-12.96 17.56-10.20L17.56-10.20L17.56-10.20Q20.32-7.44 24-6.16L24-6.16L24-6.16Q27.68-4.88 31.92-4.88L31.92-4.88L31.92-4.88Q34.64-4.88 36.84-5.20L36.84-5.20L36.84-5.20Q39.04-5.52 40.68-5.96L40.68-5.96L40.68-5.96Q42.32-6.40 43.68-6.96L43.68-6.96L43.68-21.60L33.68-21.60L33.68-27.60L50.48-27.60L50.48-3.68L50.48-3.68Q47.68-1.84 42.76-0.36L42.76-0.36L42.76-0.36Q37.84 1.12 31.92 1.04L31.92 1.04L31.92 1.04Q26.48 1.04 21.48-0.24L21.48-0.24L21.48-0.24Q16.48-1.52 12.60-4.76L12.60-4.76L12.60-4.76Q8.72-8 6.40-13.60L6.40-13.60L6.40-13.60Q4.08-19.20 4.08-27.76L4.08-27.76L4.08-27.76Q4.08-34.72 6.24-39.88L6.24-39.88L6.24-39.88Q8.40-45.04 12.12-48.44L12.12-48.44L12.12-48.44Q15.84-51.84 20.76-53.56L20.76-53.56L20.76-53.56Q25.68-55.28 31.20-55.28L31.20-55.28L31.20-55.28Q34.80-55.28 38.16-54.92L38.16-54.92L38.16-54.92Q41.52-54.56 44.32-54.12L44.32-54.12L44.32-54.12Q47.12-53.68 49.68-53.04L49.68-53.04" fill="#000000" stroke="none" stroke-width="none" transform="translate(-57.040008544921875,21.204778137207033)" style="fill: rgb(0, 0, 0);">
  </path>
  </g><g class="path" style="transform: rotate(0deg); transform-origin: 40.32px -6.07522px; animation: 2s linear 0s infinite normal forwards running spin-b09402b4-071f-4de1-994c-fc413b915ec9;"><path d="M76.56 0L76.56-2.88L107.44-48.16L76.56-48.16L76.56-54.56L118.16-54.56L118.16-51.84L87.04-6.40L117.44-6.40L117.44 0L76.56 0" fill="#000000" stroke="none" stroke-width="none" transform="translate(-57.040008544921875,21.204778137207033)" style="fill: rgb(0, 0, 0);">
  </path>
  </g>
  </g>
</g>
</g>
<style id="spin-b09402b4-071f-4de1-994c-fc413b915ec9" data-anikit="">@keyframes spin-b09402b4-071f-4de1-994c-fc413b915ec9
{
  0% {
    animation-timing-function: cubic-bezier(0.5856,0.0703,0.4143,0.9297);
    transform: rotate(0deg);
  }
  100% {
    transform: rotate(360deg);
  }
}</style></svg>